<svg width="100%" height="100%" viewBox="0 0 32 32" fill="none" xmlns="http://www.w3.org/2000/svg">
<path fill-rule="evenodd" clip-rule="evenodd" d="M16.0359 0.5C16.3649 0.49999 16.7717 0.499977 17.1415 0.546529L17.5126 0.593245L17.892 2.92884C18.1705 2.96357 18.4486 3.01043 18.7265 3.06935L19.8726 0.974675L20.2476 1.06911C20.9616 1.24886 21.6691 1.51672 22.3269 1.82589L22.6757 1.98981L22.2519 4.29444C22.5069 4.42308 22.7605 4.56477 23.0061 4.71979L24.7794 3.18905L25.094 3.39279C25.7232 3.80009 26.3007 4.29348 26.8273 4.82384L27.1014 5.09983L25.8713 7.1502C26.0702 7.36281 26.2592 7.58082 26.4371 7.81035L28.6624 6.94838L28.8827 7.29347C29.2679 7.89692 29.6626 8.55801 29.9727 9.22728L30.1355 9.57867L28.3119 11.0736C28.4226 11.326 28.5317 11.5916 28.6233 11.871L31.0085 11.8281L31.1045 12.2148C31.2794 12.9195 31.4099 13.665 31.4966 14.4079L31.5434 14.8085L29.2933 15.5781C29.2998 15.7217 29.2998 15.8589 29.2997 15.9843V16.0157C29.2998 16.1411 29.2998 16.2783 29.2933 16.4219L31.5434 17.1915L31.4966 17.5921C31.4099 18.335 31.2794 19.0805 31.1045 19.7852L31.0085 20.1719L28.6001 20.1285C28.5096 20.3838 28.4128 20.655 28.306 20.9215L30.1282 22.4153L29.9777 22.7617C29.6656 23.48 29.2668 24.1048 28.8913 24.693L28.6624 25.0516L26.4199 24.183C26.2327 24.4092 26.0464 24.6246 25.8622 24.8346L27.1105 26.9154L26.8117 27.1912C26.2942 27.6689 25.7281 28.1518 25.1143 28.5934L24.7941 28.8237L22.9943 27.27C22.7615 27.4119 22.5092 27.5633 22.251 27.7004L22.6757 30.0102L22.3269 30.1741C21.6617 30.4867 20.9578 30.7083 20.291 30.9181L19.884 31.0462L18.718 28.9151C18.6822 28.9221 18.6459 28.9292 18.6093 28.9363C18.38 28.9811 18.1359 29.0287 17.893 29.0651L17.5126 31.4068L17.1415 31.4535C16.7717 31.5 16.4064 31.5 16.0371 31.5H16.0064C15.6774 31.5 15.2707 31.5 14.9009 31.4535L14.5298 31.4068L14.1503 29.0712C13.8719 29.0364 13.5937 28.9896 13.3159 28.9306L12.1698 31.0253L11.7947 30.9309C11.0808 30.7511 10.3733 30.4833 9.71542 30.1741L9.36664 30.0102L9.79041 27.7056C9.53545 27.5769 9.28187 27.4352 9.03627 27.2802L7.263 28.811L6.94832 28.6072C6.3192 28.1999 5.74165 27.7065 5.21504 27.1762L4.9453 26.9045L6.13286 24.8542C5.93243 24.6402 5.74209 24.4208 5.56297 24.1896L3.33764 25.0516L3.11735 24.7065C2.73216 24.1031 2.33744 23.442 2.02732 22.7727L1.8645 22.4213L3.69237 20.923C3.58477 20.6612 3.48743 20.3982 3.39391 20.1287L0.991541 20.1719L0.895567 19.7852C0.720619 19.0805 0.590179 18.335 0.503399 17.5921L0.456604 17.1915L2.70679 16.4219C2.70028 16.2783 2.70029 16.1411 2.7003 16.0157L2.7003 16C2.7003 15.8514 2.71233 15.7061 2.72248 15.5835L0.456604 14.8085L0.503399 14.4079C0.590179 13.665 0.720619 12.9195 0.895567 12.2148L0.991541 11.8281L3.39994 11.8715C3.49041 11.6162 3.58724 11.345 3.69409 11.0785L1.8645 9.57867L2.02732 9.22728C2.33744 8.55801 2.73216 7.89692 3.11735 7.29347L3.33764 6.94838L5.58017 7.81702C5.76862 7.58918 5.95624 7.37234 6.14168 7.16098L4.93652 5.08031L5.23068 4.80875C5.74812 4.33106 6.31427 3.84815 6.92807 3.40661L7.24823 3.1763L9.0481 4.73C9.28086 4.5881 9.53316 4.43667 9.79135 4.29955L9.36664 1.98981L9.71542 1.82589C10.3807 1.51324 11.0847 1.29169 11.7514 1.08184L12.1584 0.953776L13.3244 3.08486C13.3602 3.07791 13.3964 3.07083 13.4331 3.06368C13.6624 3.01892 13.9065 2.97128 14.1493 2.93495L14.5298 0.593245L14.9009 0.546529C15.2707 0.499981 15.636 0.499991 16.0053 0.5L16.0359 0.5ZM16.6483 1.50923C16.4458 1.50027 16.233 1.5 16.0212 1.5C15.7886 1.5 15.5851 1.50025 15.3942 1.5087L15.0134 3.85196L14.6243 3.88461C14.3116 3.91086 14.0198 3.96826 13.6998 4.03119C13.5249 4.06559 13.3417 4.10164 13.142 4.13515L12.7913 4.19401L11.6756 2.15482C11.2653 2.28623 10.87 2.4199 10.4913 2.57653L10.9134 4.87209L10.5593 5.03417C10.2001 5.19863 9.84148 5.4175 9.47719 5.63985C9.40364 5.68474 9.32985 5.72977 9.25579 5.77453L8.94519 5.96221L7.19636 4.45257C6.85191 4.71575 6.52152 4.99294 6.20493 5.27501L7.36772 7.28253L7.12947 7.55246C6.78994 7.93715 6.45983 8.31131 6.1306 8.72577L5.90168 9.01395L3.74275 8.17769C3.51461 8.54716 3.29565 8.92448 3.10348 9.30126L4.91386 10.7853L4.75618 11.1347C4.59812 11.4849 4.46621 11.857 4.33161 12.2366C4.29502 12.3398 4.25823 12.4436 4.22066 12.5476L4.09914 12.8842L1.77578 12.8424C1.6843 13.2593 1.60821 13.69 1.54771 14.1248L3.74262 14.8755V15.233C3.74262 15.3816 3.73059 15.5269 3.72043 15.6496L3.71976 15.6577C3.70889 15.7891 3.7003 15.8963 3.7003 16C3.7003 16.2622 3.7014 16.4769 3.73591 16.6854L3.80503 17.1031L1.54771 17.8752C1.60821 18.31 1.6843 18.7407 1.77578 19.1576L4.1094 19.1156L4.22505 19.465C4.39189 19.9691 4.55488 20.4193 4.75618 20.8653L4.91386 21.2147L3.10348 22.6987C3.29565 23.0755 3.51461 23.4528 3.74275 23.8223L5.92521 22.9769L6.14966 23.2999C6.42403 23.6946 6.74145 24.0555 7.10941 24.4261L7.37914 24.6978L6.1975 26.7378C6.51315 27.0359 6.84213 27.3123 7.18426 27.5579L8.9661 26.0197L9.28529 26.2448C9.67826 26.5218 10.1158 26.7628 10.5593 26.9658L10.9134 27.1279L10.4907 29.4269C10.876 29.5935 11.2717 29.7406 11.6681 29.859L12.8063 27.7787L13.1813 27.8731C13.6635 27.9945 14.1444 28.0751 14.6243 28.1154L15.0134 28.148L15.3941 30.4908C15.5966 30.4997 15.8094 30.5 16.0212 30.5C16.2537 30.5 16.4572 30.4998 16.6482 30.4913L17.0289 28.148L17.418 28.1154C17.7307 28.0891 18.0226 28.0317 18.3425 27.9688C18.5174 27.9344 18.7007 27.8984 18.9003 27.8649L19.251 27.806L20.3668 29.8452C20.7771 29.7138 21.1724 29.5801 21.5511 29.4235L21.129 27.1279L21.483 26.9658C21.8423 26.8014 22.2009 26.5825 22.5652 26.3601C22.6387 26.3153 22.7125 26.2702 22.7866 26.2255L23.0972 26.0378L24.846 27.5474C25.1887 27.2856 25.5175 27.0098 25.8327 26.7292L24.6284 24.7219L24.8706 24.4475C25.2101 24.0629 25.5402 23.6887 25.8694 23.2742L26.0984 22.9861L28.2592 23.8231C28.4921 23.4531 28.711 23.0891 28.9022 22.7034L27.0862 21.2147L27.2439 20.8653C27.4019 20.5151 27.5338 20.143 27.6684 19.7634C27.705 19.6602 27.7418 19.5564 27.7794 19.4524L27.9009 19.1158L30.2243 19.1576C30.3157 18.7407 30.3918 18.31 30.4523 17.8752L28.195 17.1031L28.2641 16.6854C28.2986 16.4769 28.2997 16.2622 28.2997 16C28.2997 15.7378 28.2986 15.5231 28.2641 15.3146L28.195 14.8969L30.4523 14.1248C30.3918 13.69 30.3157 13.2593 30.2243 12.8424L27.8604 12.8849L27.7644 12.4983C27.6501 12.038 27.4583 11.6097 27.2439 11.1347L27.0862 10.7853L28.8966 9.30126C28.7044 8.92448 28.4854 8.54716 28.2573 8.17769L26.0748 9.02306L25.8504 8.70014C25.576 8.3054 25.2586 7.94446 24.8906 7.57389L24.6166 7.2979L25.8404 5.25795C25.5261 4.96144 25.1986 4.68653 24.8581 4.44213L23.0763 5.98027L22.7571 5.75525C22.3641 5.47822 21.9266 5.23722 21.483 5.03417L21.129 4.87209L21.5517 2.57306C21.1664 2.40646 20.7706 2.25942 20.3743 2.14102L19.2361 4.22135L18.861 4.12691C18.3789 4.00552 17.898 3.92489 17.418 3.88461L17.0289 3.85196L16.6483 1.50923Z" fill="#8C754B"/>
<path fill-rule="evenodd" clip-rule="evenodd" d="M15.0654 5.42041V12.018L14.7339 12.1367C13.1416 12.7065 11.9852 14.1799 11.9852 15.9365C11.9852 16.191 12.0215 16.4517 12.0646 16.7539L12.1121 17.0867L6.47133 20.38L6.25411 19.8457C5.76542 18.6437 5.5 17.3112 5.5 15.9365C5.5 10.61 9.39926 6.25978 14.4921 5.50533L15.0654 5.42041ZM16.9346 5.46269L17.5079 5.54762C22.602 6.30226 26.5 10.6959 26.5 15.9788C26.5 17.3535 26.2346 18.686 25.7459 19.888L25.5287 20.4223L19.8879 17.129L19.9354 16.7962C19.9785 16.494 20.0148 16.2333 20.0148 15.9788C20.0148 14.1702 18.8925 12.7098 17.2795 12.1835L16.9346 12.071V5.46269ZM14.0654 6.59727C9.73781 7.5089 6.5 11.3168 6.5 15.9365C6.5 16.9781 6.6681 17.99 6.97967 18.9253L11.0291 16.561C11.0045 16.3613 10.9852 16.1501 10.9852 15.9365C10.9852 13.846 12.282 12.1048 14.0654 11.3266V6.59727ZM17.9346 6.63976V11.3592C19.7643 12.1054 21.0148 13.8589 21.0148 15.9788C21.0148 16.1924 20.9955 16.4036 20.9709 16.6033L25.0203 18.9676C25.3319 18.0323 25.5 17.0203 25.5 15.9788C25.5 11.3984 22.2611 7.55438 17.9346 6.63976ZM16 14.3223C15.0957 14.3223 14.3481 15.07 14.3481 15.9788C14.3481 16.8876 15.0957 17.6352 16 17.6352C16.9043 17.6352 17.6519 16.8876 17.6519 15.9788C17.6519 15.0277 16.9465 14.3223 16 14.3223ZM13.3481 15.9788C13.3481 14.5197 14.5414 13.3223 16 13.3223C17.5008 13.3223 18.6519 14.4774 18.6519 15.9788C18.6519 17.4379 17.4586 18.6352 16 18.6352C14.5414 18.6352 13.3481 17.4379 13.3481 15.9788ZM13.1089 18.746L13.3802 18.9892C14.0918 19.6273 14.9806 19.9987 16.0671 19.9611L16.0758 19.9608H16.0844C17.0945 19.9608 17.9952 19.5872 18.7155 18.9793L18.9853 18.7517L24.642 22.0543L24.2811 22.5064C22.3349 24.9443 19.367 26.4999 16.0422 26.4999C12.7206 26.4999 9.70712 24.9467 7.79987 22.502L7.44805 22.051L13.1089 18.746ZM8.95581 22.3287C10.6842 24.2794 13.2406 25.4999 16.0422 25.4999C18.8407 25.4999 21.3631 24.2816 23.1236 22.3258L19.08 19.9649C18.2463 20.5794 17.2273 20.9589 16.0931 20.9608C14.8761 21.0009 13.8387 20.6238 12.9957 19.97L8.95581 22.3287Z" fill="#8C754B"/>
</svg>
