<svg width="24" height="25" viewBox="0 0 24 25" fill="none" xmlns="http://www.w3.org/2000/svg">
<path fill-rule="evenodd" clip-rule="evenodd" d="M17.317 12.4484C17.6316 12.6441 17.6316 13.102 17.317 13.2977L9.01389 18.4602C8.68083 18.6673 8.24988 18.4278 8.24988 18.0356L8.24988 7.71052C8.24988 7.31833 8.68083 7.07882 9.01389 7.2859L17.317 12.4484ZM9.74988 9.50982L15.1591 12.873L9.74988 16.2363V9.50982Z" fill="#BBBBBB"/>
<path fill-rule="evenodd" clip-rule="evenodd" d="M0.999969 3.87305C0.999969 2.76848 1.8954 1.87305 2.99997 1.87305H21C22.1045 1.87305 23 2.76848 23 3.87305V21.873C23 22.9776 22.1045 23.873 21 23.873H2.99997C1.8954 23.873 0.999969 22.9776 0.999969 21.873V3.87305ZM2.99997 3.37305H21C21.2761 3.37305 21.5 3.5969 21.5 3.87305V21.873C21.5 22.1492 21.2761 22.373 21 22.373H2.99997C2.72383 22.373 2.49997 22.1492 2.49997 21.873V3.87305C2.49997 3.5969 2.72383 3.37305 2.99997 3.37305Z" fill="#BBBBBB"/>
</svg>
