<svg width="100%" height="100%" viewBox="0 0 240 220" fill="none" xmlns="http://www.w3.org/2000/svg">
<g clip-path="url(#clip0)">
<path d="M107.163 111.542L119.02 116.54C119.16 116.586 119.253 116.633 119.393 116.633C119.533 116.633 119.626 116.633 119.766 116.586L130.736 112.429C131.203 112.242 131.483 111.729 131.343 111.262C130.923 109.533 130.269 108.272 129.663 107.151C128.776 105.423 128.169 104.302 128.776 102.2C129.242 100.705 131.997 98.8836 133.35 99.1639C133.397 99.1639 133.537 99.304 133.677 99.4908C133.957 99.8178 134.144 100.191 134.377 100.612L134.564 100.939C134.751 101.266 135.124 101.453 135.498 101.406C135.871 101.359 136.198 101.126 136.338 100.799C137.225 98.6501 137.178 96.5481 136.198 94.96C135.264 93.4186 133.537 92.4377 131.343 92.2509C130.83 92.2042 130.363 92.2509 129.849 92.2976C129.476 92.3443 128.822 92.391 128.682 92.3443C126.628 90.6161 124.528 91.1766 122.707 91.6437C117.339 92.9983 113.278 96.3146 110.524 101.546C109.31 103.835 107.536 107.618 106.509 110.374C106.463 110.748 106.696 111.355 107.163 111.542ZM112.438 102.34C114.912 97.6692 118.553 94.6798 123.547 93.4186C125.275 92.9983 126.395 92.7647 127.562 93.7923C128.309 94.3995 129.336 94.3061 130.223 94.2127C130.596 94.166 131.016 94.1193 131.343 94.166C132.883 94.3061 134.051 94.9133 134.657 95.9409C134.984 96.5014 135.171 97.1554 135.124 97.9027C134.844 97.6225 134.424 97.2955 133.91 97.1554C131.436 96.6416 127.702 99.0704 126.955 101.593C126.115 104.442 127.002 106.217 127.982 108.039C128.449 108.879 128.869 109.767 129.242 110.841L119.486 114.531L108.89 110.094C109.87 107.525 111.364 104.349 112.438 102.34Z" fill="#0F100F"/>
<path d="M239.641 77.304C239.547 77.0237 239.361 76.7902 239.127 76.6968C238.894 76.5566 238.567 76.5567 238.334 76.6501L120.047 124.62L1.80616 76.6501C1.52608 76.5567 1.246 76.5566 1.0126 76.6968C0.779204 76.8369 0.545801 77.0704 0.499121 77.304C0.359081 77.7244 -2.16163 87.0662 8.99489 96.5949C7.64117 108.552 22.7188 116.306 24.1659 117.007C24.3059 131.44 35.9292 136.251 36.0226 136.251L65.8511 148.395C66.0845 148.489 66.3646 148.489 66.598 148.395L84.0563 141.295L107.023 150.591L101.328 161.614C101.188 161.941 101.188 162.315 101.375 162.595C101.561 162.875 101.888 163.062 102.215 163.062H137.832C138.205 163.062 138.532 162.875 138.672 162.595C138.859 162.315 138.859 161.941 138.719 161.614L133.07 150.684L156.037 141.389L173.495 148.489C173.729 148.582 174.009 148.582 174.242 148.489L204.071 136.344C204.211 136.298 215.787 131.533 215.927 117.1C216.768 116.68 232.499 108.879 231.098 96.6416C242.302 87.0662 239.734 77.7244 239.641 77.304ZM136.105 133.308C130.503 135.55 125.088 137.746 120.047 139.754C115.005 137.746 109.59 135.55 103.989 133.308L120.047 126.816L136.105 133.308ZM127.889 145.079L130.27 149.61L120.047 153.767L109.87 149.61L112.251 145.032C114.678 144.051 117.293 143.024 120.093 141.903C122.847 143.07 125.462 144.098 127.889 145.079ZM2.1796 78.9855L117.339 125.695L101.281 132.234C61.2298 116.119 12.3092 96.3146 10.6754 95.4738C2.1796 88.4208 1.89952 81.6012 2.1796 78.9855ZM10.9088 97.6692C19.5912 101.406 63.5171 119.155 98.5738 133.308L84.0563 139.194L25.0061 115.232C24.8661 115.185 10.5353 108.085 10.9088 97.6692ZM66.2246 146.433L36.7695 134.429C36.3494 134.242 26.7333 130.272 26.1731 117.848L81.3956 140.221L66.2246 146.433ZM86.7638 140.268L101.281 134.383C106.976 136.671 112.391 138.867 117.339 140.828C115.192 141.716 113.091 142.557 111.084 143.351C110.851 143.444 110.664 143.584 110.571 143.818L107.957 148.862L86.7638 140.268ZM136.198 161.053H103.895L108.89 151.431L119.627 155.775C119.767 155.822 119.86 155.869 120 155.869C120.14 155.869 120.28 155.822 120.373 155.775L131.156 151.431L136.198 161.053ZM132.137 148.862L129.523 143.818C129.429 143.584 129.243 143.444 129.009 143.351C127.002 142.557 124.948 141.716 122.754 140.828C127.702 138.82 133.117 136.671 138.812 134.383L153.329 140.268L132.137 148.862ZM203.324 134.429L173.869 146.387L158.698 140.221L213.92 117.848C213.36 130.272 203.744 134.289 203.324 134.429ZM215.134 115.232L155.99 139.194L141.473 133.308C176.529 119.202 220.502 101.453 229.138 97.7159C229.558 108.085 215.227 115.185 215.134 115.232ZM229.511 95.3337C229.511 95.3337 229.511 95.3804 229.511 95.3337C227.644 96.3146 178.77 116.073 138.765 132.187L122.707 125.648L237.867 78.9388C238.194 81.6012 237.914 88.4208 229.511 95.3337Z" fill="#0F100F"/>
<path d="M161.965 102.62C161.639 102.62 161.312 102.48 161.125 102.153C151.976 88.3273 136.618 80.0598 120.047 80.0598C103.755 80.0598 88.5377 88.1404 79.3417 101.639C79.0149 102.106 78.4081 102.2 77.9413 101.92C77.4745 101.593 77.3811 100.985 77.6612 100.518C87.2306 86.4589 103.102 78.0513 120.047 78.0513C137.272 78.0513 153.283 86.6457 162.806 101.032C163.132 101.499 162.992 102.106 162.525 102.433C162.339 102.574 162.152 102.62 161.965 102.62Z" fill="#0F100F"/>
<path d="M120.047 180.671C100.488 180.671 82.3759 169.274 73.8801 151.665C73.6467 151.151 73.8334 150.544 74.3469 150.31C74.8604 150.077 75.4672 150.264 75.7006 150.777C83.8696 167.686 101.281 178.663 120.047 178.663C138.859 178.663 155.757 168.2 164.159 151.291C164.393 150.777 164.999 150.591 165.513 150.824C166.026 151.058 166.213 151.665 165.98 152.179C157.251 169.741 139.652 180.671 120.047 180.671Z" fill="#0F100F"/>
<path d="M120.047 187.584C97.6869 187.584 77.6612 175.113 67.8118 155.028C67.5784 154.514 67.7651 153.907 68.2786 153.673C68.792 153.44 69.3989 153.626 69.6323 154.14C79.155 173.524 98.4805 185.575 120.047 185.575C141.753 185.575 161.779 172.824 170.975 153.159C171.208 152.645 171.815 152.459 172.328 152.692C172.842 152.926 173.028 153.533 172.795 154.047C163.226 174.365 142.546 187.584 120.047 187.584Z" fill="#0F100F"/>
<path d="M168.64 100.238C168.314 100.238 167.987 100.051 167.8 99.7709C157.484 83.1424 139.606 73.1934 120.093 73.1934C101.141 73.1934 83.5895 82.6753 73.1799 98.5097C72.8531 98.9768 72.2463 99.117 71.7795 98.79C71.3127 98.463 71.1726 97.8558 71.4994 97.3887C82.3291 80.9471 100.488 71.1382 120.093 71.1382C140.352 71.1382 158.838 81.4142 169.527 98.6499C169.807 99.117 169.667 99.7242 169.201 100.051C169.014 100.191 168.827 100.238 168.64 100.238Z" fill="#0F100F"/>
<path d="M203.184 67.6817L166.447 27.325C166.307 27.1849 166.12 27.0915 165.886 27.0915C165.7 27.0448 165.466 27.1849 165.326 27.325L157.717 35.9195L126.535 0.560694C126.395 0.420567 126.208 0.327148 125.975 0.327148C125.742 0.327148 125.555 0.420567 125.415 0.560694L117.479 9.52885L112.204 3.59679C112.064 3.45666 111.878 3.36324 111.644 3.36324C111.411 3.36324 111.224 3.45666 111.084 3.59679L86.6237 31.342L78.4547 22.1403C78.1747 21.8133 77.6145 21.8133 77.3344 22.1403L36.1627 68.7093C35.8826 69.0363 35.9293 69.5034 36.2093 69.7836C36.3494 69.9237 36.5361 69.9705 36.7228 69.9705C36.9095 69.9705 37.1429 69.877 37.283 69.7369L77.8946 23.8218L85.5968 32.5097L49.2331 73.8006C48.953 74.1276 48.9997 74.5947 49.2797 74.8749C49.4198 75.015 49.6065 75.0618 49.7932 75.0618C49.9799 75.0618 50.2133 74.9683 50.3534 74.8282L86.6237 33.6775L97.2201 45.635L86.1103 58.1998C85.9236 58.4333 85.8769 58.7603 85.9702 58.9938C86.1103 59.2741 86.3437 59.4609 86.6704 59.4609H109.777C110.057 59.4609 110.337 59.2741 110.477 58.9938C110.617 58.7136 110.571 58.3866 110.337 58.1998L99.2273 45.635L113.045 30.0342H127.842L136.805 40.0299L132.51 44.8877C132.323 45.1212 132.277 45.4482 132.37 45.6817C132.51 45.962 132.744 46.1488 133.07 46.1488H142.593C142.873 46.1488 143.153 45.962 143.293 45.6817C143.433 45.4015 143.387 45.0745 143.153 44.8877L138.812 40.0299L145.114 32.8834L152.723 41.5246L141.146 54.6032C140.959 54.8367 140.913 55.1637 141.006 55.3972C141.146 55.6775 141.379 55.8643 141.706 55.8643H165.606C165.886 55.8643 166.166 55.6775 166.307 55.4439C166.447 55.1637 166.4 54.8367 166.166 54.6499L154.683 41.5713L157.671 38.2083L189.226 73.894C189.506 74.221 189.973 74.221 190.3 73.9407C190.627 73.6605 190.627 73.1934 190.347 72.8664L158.698 37.0405L165.84 28.9598L202.017 68.7093C202.297 69.0363 202.764 69.0363 203.09 68.756C203.464 68.4758 203.464 68.0087 203.184 67.6817ZM132.183 28.4928H128.496L120.934 20.0384C120.794 19.8983 120.607 19.8049 120.373 19.8049C120.14 19.8049 119.953 19.8983 119.813 20.0384L112.344 28.4928H102.682L117.433 11.8176L132.183 28.4928ZM108.097 57.9195H88.3509L98.2471 46.756L108.097 57.9195ZM98.2004 44.4673L87.604 32.5097L111.598 5.27832L116.406 10.6966L100.394 28.773C100.208 29.0066 100.161 29.3335 100.254 29.5671C100.394 29.8473 100.628 30.0342 100.955 30.0342H110.944L98.2004 44.4673ZM114.352 28.4928L120.373 21.6732L126.488 28.4928H114.352ZM140.913 44.6074H134.751L137.832 41.1509L140.913 44.6074ZM163.973 54.3696H143.387L153.703 42.6923L163.973 54.3696ZM153.75 40.4036L145.721 31.2486C145.581 31.1085 145.394 30.9683 145.16 30.9683C144.927 30.9683 144.74 31.0618 144.6 31.2019L137.832 38.8622L129.896 29.9874H133.911C134.191 29.9874 134.471 29.8006 134.611 29.5204C134.751 29.2401 134.704 28.9131 134.471 28.7263L118.506 10.6499L126.022 2.19551L156.784 37.0405L153.75 40.4036Z" fill="#C0A968"/>
<path d="M122.007 212.293C122.007 213.414 121.12 214.302 120 214.302C118.88 214.302 117.993 213.414 117.993 212.293C117.993 211.172 118.88 210.285 120 210.285C121.12 210.285 122.007 211.172 122.007 212.293Z" fill="#53565A"/>
<path d="M48.4862 163.295C49.7932 165.818 48.813 168.573 45.7321 170.162C42.6979 171.703 39.8504 170.909 38.5434 168.387C37.8432 167.079 37.9365 165.631 38.6367 164.089L34.809 166.051L35.5558 167.499L34.6689 167.966L32.615 163.996L33.5019 163.529L34.2488 164.977L45.312 159.278L44.5651 157.83L45.452 157.363L46.759 159.932L44.8918 160.866C46.5256 161.053 47.7393 161.801 48.4862 163.295ZM45.2186 169.087C47.786 167.779 48.5796 165.724 47.5526 163.669C46.5256 161.614 44.425 161.147 41.811 162.501C39.2902 163.809 38.4033 165.911 39.4303 167.873C40.4573 169.835 42.6512 170.395 45.2186 169.087Z" fill="#212322"/>
<path d="M55.5348 178.383C57.542 177.962 58.8957 178.289 60.0627 179.644L60.2961 179.924L59.3625 180.718L59.1758 180.484C57.542 178.476 55.2547 178.663 52.4539 180.952L49.9332 183.053L50.9601 184.315L50.1666 184.969L47.3191 181.512L48.1127 180.858L49.1396 182.119L55.9082 176.514L54.8813 175.253L55.6748 174.599L57.4953 176.794L55.5348 178.383Z" fill="#212322"/>
<path d="M62.0702 195.384L63.2838 196.412L62.6303 197.206L59.2227 194.31L59.8762 193.516L61.1366 194.544L66.7848 187.817L65.5712 186.79L66.2247 185.996L68.4186 187.864L62.0702 195.384ZM70.3325 184.268C70.6592 184.548 70.7526 185.062 70.4259 185.389C70.1458 185.715 69.6323 185.762 69.2589 185.482C68.8854 185.155 68.8854 184.688 69.1655 184.361C69.5389 184.034 70.0057 183.987 70.3325 184.268Z" fill="#212322"/>
<path d="M82.0492 197.066C83.2162 197.673 83.7764 198.514 83.6363 199.635C85.4568 199.402 86.8106 199.448 87.8842 199.962C89.8915 200.943 89.7981 202.251 88.6311 204.633L85.9703 209.958L87.4174 210.659L86.9506 211.546L82.9361 209.538L83.4029 208.65L84.85 209.351L87.4641 204.119C88.3977 202.298 88.6311 201.41 87.2774 200.71C86.2971 200.242 84.9901 200.196 83.3096 200.616L80.1353 207.015L81.5824 207.716L81.1156 208.603L77.1011 206.595L77.5679 205.707L79.015 206.408L81.6291 201.177C82.5627 199.355 82.7961 198.467 81.4424 197.814C80.4621 197.346 79.1551 197.3 77.4746 197.72L74.3003 204.073L75.7474 204.773L75.2806 205.661L71.2661 203.652L71.7329 202.765L73.18 203.465L77.1011 195.572L75.654 194.871L76.1208 193.983L78.6882 195.245L78.0347 196.599C79.6218 196.459 81.0223 196.552 82.0492 197.066Z" fill="#212322"/>
<path d="M102.215 214.675C103.989 215.049 105.342 214.489 106.463 212.994L107.303 213.554C106.043 215.376 104.129 216.17 101.888 215.75C98.7606 215.142 97.2202 212.62 97.9204 209.117C98.6206 205.707 101.048 203.932 103.895 204.493C106.79 205.053 108.33 207.576 107.676 210.939L107.63 211.266L99.1807 209.584C98.6206 212.387 99.7409 214.208 102.215 214.675ZM106.556 210.051C106.883 207.716 105.716 206.034 103.709 205.614C101.701 205.193 99.9743 206.314 99.3674 208.603L106.556 210.051Z" fill="#212322"/>
<path d="M138.485 204.119C141.239 203.465 143.714 205.1 144.46 208.463C145.207 211.78 143.76 214.349 141.006 215.003C139.559 215.33 138.159 214.909 136.852 213.882L137.832 218.085L139.419 217.712L139.652 218.693L135.264 219.72L135.031 218.739L136.618 218.366L133.817 206.268L132.23 206.642L131.997 205.661L134.798 205.007L135.264 207.062C135.825 205.474 136.852 204.493 138.485 204.119ZM143.293 208.697C142.64 205.894 140.819 204.586 138.625 205.1C136.385 205.614 135.404 207.482 136.058 210.378C136.712 213.134 138.532 214.489 140.726 213.975C142.873 213.508 143.947 211.546 143.293 208.697Z" fill="#212322"/>
<path d="M155.617 200.569C155.664 198.514 156.317 197.253 157.904 196.459L158.231 196.319L158.791 197.44L158.558 197.58C156.224 198.748 155.85 200.99 157.484 204.213L158.931 207.155L160.378 206.455L160.845 207.342L156.831 209.351L156.364 208.417L157.811 207.716L153.936 199.822L152.489 200.523L152.022 199.635L154.59 198.374L155.617 200.569Z" fill="#212322"/>
<path d="M165.14 187.257C165.466 186.977 165.98 187.024 166.26 187.397C166.54 187.771 166.447 188.285 166.073 188.565C165.7 188.845 165.233 188.752 164.953 188.378C164.673 188.005 164.766 187.491 165.14 187.257ZM174.056 197.814L175.363 196.833L175.969 197.627L172.375 200.336L171.768 199.542L173.075 198.561L167.8 191.508L166.493 192.489L165.886 191.695L168.174 189.966L174.056 197.814Z" fill="#212322"/>
<path d="M190.44 181.885L191.467 180.671L192.214 181.325L190.347 183.474L189.04 182.353C189.367 184.034 189.04 185.435 188.06 186.556C186.192 188.705 183.251 188.798 180.684 186.556C178.117 184.314 177.79 181.372 179.657 179.223C180.731 177.962 182.131 177.495 183.718 177.728L179.47 174.038L178.397 175.253L177.65 174.599L179.517 172.45L190.44 181.885ZM186.379 180.017C184.185 178.102 181.991 178.149 180.497 179.877C179.004 181.605 179.33 183.707 181.524 185.622C183.672 187.491 185.959 187.491 187.406 185.809C188.9 184.127 188.573 181.932 186.379 180.017Z" fill="#212322"/>
<path d="M200.43 166.238C201.223 164.65 201.083 163.155 199.963 161.707L200.756 161.053C202.204 162.735 202.437 164.79 201.41 166.845C200.01 169.694 197.162 170.535 193.988 168.9C190.86 167.312 189.833 164.463 191.094 161.894C192.401 159.278 195.248 158.438 198.282 159.979L198.562 160.119L194.688 167.826C197.209 169.134 199.263 168.527 200.43 166.238ZM197.069 160.866C194.921 159.932 192.961 160.586 192.027 162.455C191.094 164.323 191.747 166.285 193.754 167.452L197.069 160.866Z" fill="#212322"/>
</g>
<defs>
<clipPath id="clip0">
<rect width="239.935" height="220" fill="white" transform="translate(0.0323486)"/>
</clipPath>
</defs>
</svg>
